# xmcd
#
# Track frame offsets:
#	150
#	23398
#	58604
#	80224
#	102173
#	122360
#	141710
#	162111
#	180914
#	213316
#	241003
#	261701
#	282327
#	296348
#
# Disc length: 4417 seconds
#
# Revision: 2
# Processed by: cddbd v1.5.2PL0 Copyright (c) Steve Scherf et al.
# Submitted via: audiograbber 1.83.01
#
DISCID=c4113f0e
DTITLE=—борник - Time Blues  vol. 7
DYEAR=2008
DGENRE=Blues
TTITLE0=Little Smokey Smothers - You're Gonna Miss Me
TTITLE1=Bluebone - When Blue Was Just A Color
TTITLE2=Vargas Blues Band - Luna
TTITLE3=Joel Johnson - Slow Burns
TTITLE4=Danny Masters - As The Years Go Passing By 
TTITLE5=The Loeff Berchmaker Blues Band - Drowning Blues 
TTITLE6=Nobby Reed - My Intentions
TTITLE7=Jeff Naideau - Might As Well Be Guilty
TTITLE8=Albert Cummings - Lonely Bed
TTITLE9=Paul Filipowicz - Can't Take It With You
TTITLE10=Roberto Ciotti - My New Blue Truck
TTITLE11=Johnny Hallyday - Fool For The Blues
TTITLE12=Susan Tedeschi - You Need To Be With Me
TTITLE13=The Alan Marcus Blues Project - Waiting For You
EXTD=
EXTT0=
EXTT1=
EXTT2=
EXTT3=
EXTT4=
EXTT5=
EXTT6=
EXTT7=
EXTT8=
EXTT9=
EXTT10=
EXTT11=
EXTT12=
EXTT13=
PLAYORDER=
